<?xml version="1.0" encoding="utf-8"?>
<!-- Generator: Adobe Illustrator 28.2.0, SVG Export Plug-In . SVG Version: 6.00 Build 0)  -->
<svg version="1.1" id="Layer_1" xmlns:xodm="http://www.corel.com/coreldraw/odm/2003"
	 xmlns="http://www.w3.org/2000/svg" xmlns:xlink="http://www.w3.org/1999/xlink" x="0px" y="0px" viewBox="0 0 612 792"
	 style="enable-background:new 0 0 612 792;" xml:space="preserve">
<style type="text/css">
	.st0{fill-rule:evenodd;clip-rule:evenodd;fill:url(#SVGID_1_);}
	.st1{fill-rule:evenodd;clip-rule:evenodd;fill:url(#SVGID_00000067196701100219062700000016919914529500841629_);}
</style>
<g id="Layer_x0020_1">
	<g id="_2030599285088">
		
			<radialGradient id="SVGID_1_" cx="3957.4771" cy="-4415.3101" r="1002.723" gradientTransform="matrix(7.200000e-02 0 0 -6.170623e-02 0 96.3914)" gradientUnits="userSpaceOnUse">
			<stop  offset="0" style="stop-color:#BF12D6"/>
			<stop  offset="1.176470e-02" style="stop-color:#F4F4F4"/>
			<stop  offset="1" style="stop-color:#AA00FF"/>
		</radialGradient>
		<path class="st0" d="M189,480.9c8.9-1.8,79.2-28,95.7-33.6c21.4-7.3,16.8-5.4,16.8-46.6c0-75.5,6.4-69.3-23.2-58.7
			c-6.9,2.5-16.4,4-20.4,9.6c-3,5.8-2.6,43.6-0.6,51.6c8.7,1.5,24.5-7.8,34.8-9.6l0.1,23.5c-4.9,3.1-20.6,8-26.4,10.1
			c-41.2,14.3-34.1,12.2-34.2-63.1c0-32.5,6.1-32.2,32.6-41.6c67.5-23.9,61.9-25.3,61.8,18.5c0,12.9-0.5,26.8,0.2,39.6l89.4-31.1
			c-1.4-14.6-20.1-41.2-27.7-48.6c-12.7-12.6-24.3-23.4-44.9-32.7c-76.5-34.2-169.8,11.2-186.7,97.1c-4.4,22.3-2.4,46.4,3.9,66.7
			C165.6,448.7,178.9,473.3,189,480.9L189,480.9z"/>
		
			<radialGradient id="SVGID_00000150064169254319870620000000439572795933870497_" cx="4394.9346" cy="-5647.7041" r="819.8733" gradientTransform="matrix(7.200000e-02 0 0 -5.147021e-02 0 158.4124)" gradientUnits="userSpaceOnUse">
			<stop  offset="0" style="stop-color:#BF12D6"/>
			<stop  offset="1.176470e-02" style="stop-color:#F4F4F4"/>
			<stop  offset="1" style="stop-color:#AA00FF"/>
		</radialGradient>
		<path style="fill-rule:evenodd;clip-rule:evenodd;fill:url(#SVGID_00000150064169254319870620000000439572795933870497_);" d="
			M326.6,406.2c-1.7,14.3,2.7,37.3-4.5,47.5c-7.2,10.1-22.8,13.1-35.4,17.7c-26.5,9.7-50.9,17.7-77.2,27.1
			c11.2,17.1,64.4,30.2,95.4,26.4c83.3-13.1,126.9-68.5,117.1-152.2C416.8,372.5,331.8,402.7,326.6,406.2L326.6,406.2z"/>
	</g>
</g>
</svg>
