<?xml version="1.0" encoding="UTF-8"?>
<svg id="Layer_2" data-name="Layer 2" xmlns="http://www.w3.org/2000/svg" xmlns:xlink="http://www.w3.org/1999/xlink" viewBox="0 0 235 103.32">
  <defs>
    <style>
      .cls-1 {
        fill: url(#linear-gradient-2);
      }

      .cls-2 {
        fill: url(#linear-gradient-10);
      }

      .cls-3 {
        fill: url(#linear-gradient-8);
      }

      .cls-3, .cls-4 {
        stroke: #744ba1;
        stroke-miterlimit: 10;
        stroke-width: .25px;
      }

      .cls-5 {
        fill: url(#linear-gradient-4);
      }

      .cls-4 {
        fill: url(#linear-gradient-7);
      }

      .cls-6 {
        fill: url(#linear-gradient-3);
      }

      .cls-7 {
        fill: url(#linear-gradient-5);
      }

      .cls-8 {
        fill: url(#linear-gradient-9);
      }

      .cls-9 {
        fill: url(#linear-gradient-6);
      }

      .cls-10 {
        fill: url(#linear-gradient);
      }
    </style>
    <linearGradient id="linear-gradient" x1="711.16" y1="-881.24" x2="961.38" y2="-899.11" gradientTransform="translate(33.89 .14) scale(.07 -.07)" gradientUnits="userSpaceOnUse">
      <stop offset="0" stop-color="#7e45a9"/>
      <stop offset=".6" stop-color="#7546a4"/>
      <stop offset="1" stop-color="#6d499f"/>
    </linearGradient>
    <linearGradient id="linear-gradient-2" x1="-870.75" y1="-83.57" x2="312.97" y2="-777.71" gradientTransform="translate(33.89 .14) scale(.07 -.07)" gradientUnits="userSpaceOnUse">
      <stop offset="0" stop-color="#7e45a9"/>
      <stop offset="1" stop-color="#7044a8"/>
    </linearGradient>
    <linearGradient id="linear-gradient-3" x1="-475.36" y1="-898.07" x2="-202.8" y2="-915.1" gradientTransform="translate(33.89 .14) scale(.07 -.07)" gradientUnits="userSpaceOnUse">
      <stop offset="0" stop-color="#7044a8"/>
      <stop offset="1" stop-color="#7044a8"/>
    </linearGradient>
    <linearGradient id="linear-gradient-4" x1="804.53" y1="-764.98" x2="944.6" y2="-169.63" gradientTransform="translate(33.89 .14) scale(.07 -.07)" gradientUnits="userSpaceOnUse">
      <stop offset=".05" stop-color="#7e45a9"/>
      <stop offset="1" stop-color="#7044a8"/>
    </linearGradient>
    <linearGradient id="linear-gradient-5" x1="1399.02" y1="-570.48" x2="1501.22" y2="-570.48" gradientTransform="translate(33.89 .14) scale(.07 -.07)" gradientUnits="userSpaceOnUse">
      <stop offset="0" stop-color="#7e45a9"/>
      <stop offset="1" stop-color="#7044a8"/>
    </linearGradient>
    <linearGradient id="linear-gradient-6" x1="149.21" y1="25.84" x2="156.91" y2="25.84" gradientUnits="userSpaceOnUse">
      <stop offset=".08" stop-color="#7e45a9"/>
      <stop offset=".85" stop-color="#7044a8"/>
    </linearGradient>
    <linearGradient id="linear-gradient-7" x1="199.18" y1="33.02" x2="181.39" y2="33.22" gradientUnits="userSpaceOnUse">
      <stop offset=".16" stop-color="#7044a8"/>
      <stop offset=".61" stop-color="#7344a8"/>
      <stop offset="1" stop-color="#7e45a9"/>
    </linearGradient>
    <linearGradient id="linear-gradient-8" x1="208.26" y1="32.51" x2="232.94" y2="32.51" gradientUnits="userSpaceOnUse">
      <stop offset="0" stop-color="#7e45a9"/>
      <stop offset=".07" stop-color="#7a44a8"/>
      <stop offset=".35" stop-color="#7244a8"/>
      <stop offset=".85" stop-color="#7044a8"/>
    </linearGradient>
    <linearGradient id="linear-gradient-9" x1="163.52" y1="33.2" x2="171.22" y2="33.2" xlink:href="#linear-gradient-8"/>
    <linearGradient id="linear-gradient-10" x1="163.5" y1="7.92" x2="171.25" y2="7.92" xlink:href="#linear-gradient-8"/>
  </defs>
  <g id="Layer_1-2" data-name="Layer 1">
    <polygon class="cls-10" points="103.31 102.97 86.77 103.32 86.35 25.51 101.87 25.17 103.31 102.97"/>
    <path class="cls-1" d="M27.49,10.46l-.65-10.46L10.34,18.3l17.31,18.77.06-10.55c6.28.21,11.57,3.9,11.91,12.22.34,8.63-.61,17.35-10.83,18.91-5.36.82-9.31.26-14.83-4.94-3.45-3.25-6.21-5.35-6.34-9.46l.58-2.2c-1.24,10.98-3.57,21.56,3.72,27.55,4.51,3.7,10.65,4.24,18.19,3.52,7.1-.69,14.04-3.58,19.38-10.13,4.86-5.96,6.78-13.12,6.48-20.79-.31-7.67-2.35-14.72-7.06-20.56-4.77-5.91-12.11-10.07-21.4-10.18h0s0,0,0,0Z"/>
    <polygon class="cls-6" points="19.62 103.32 .59 102.66 0 28.25 19.32 28.22 19.62 103.32"/>
    <polygon class="cls-5" points="94.88 10.55 133.86 41.31 120.76 52.2 94.65 31.35 68.51 52.98 56.22 41.71 94.88 10.55"/>
    <ellipse class="cls-7" cx="139.11" cy="41.21" rx="3.51" ry="3.45"/>
    <path class="cls-9" d="M149.21,2.71h7.7v46.25h-7.7V2.71Z"/>
    <path class="cls-4" d="M180.88,17.43l6.19,17.72c1.04,2.87,1.89,5.47,2.54,8.08h.2c.72-2.61,1.63-5.21,2.67-8.08l6.12-17.72h5.99l-12.38,31.53h-5.47l-11.99-31.53h6.12Z"/>
    <path class="cls-3" d="M212.54,33.59c.13,7.75,5.08,10.94,10.81,10.94,4.1,0,6.58-.72,8.73-1.63l.98,4.1c-2.02.91-5.47,1.95-10.49,1.95-9.71,0-15.5-6.38-15.5-15.89s5.6-17,14.79-17c10.29,0,13.03,9.05,13.03,14.85,0,1.17-.13,2.08-.2,2.67h-22.15ZM229.34,29.49c.07-3.65-1.5-9.32-7.95-9.32-5.8,0-8.34,5.34-8.79,9.32h16.74Z"/>
    <g>
      <path class="cls-8" d="M163.52,48.96v-31.53h7.7v31.53h-7.7Z"/>
      <rect class="cls-2" x="163.5" y="4.38" width="7.75" height="7.07"/>
    </g>
  </g>
</svg>